<svg width="25" height="26" viewBox="0 0 25 26" fill="none" xmlns="http://www.w3.org/2000/svg">
<path d="M23.9583 7.7915V1.5415H17.7083" stroke="#1473E6" stroke-width="1.04167" stroke-linecap="round" stroke-linejoin="round"/>
<path d="M16.6667 8.83317L23.9584 1.5415" stroke="#1473E6" stroke-width="1.04167" stroke-linecap="round" stroke-linejoin="round"/>
<path d="M22.9167 18.1253V21.2503C22.9178 21.5404 22.8584 21.8276 22.7422 22.0933C22.6259 22.3591 22.4555 22.5978 22.2418 22.7939C22.028 22.99 21.7756 23.1393 21.5008 23.2322C21.2259 23.3252 20.9348 23.3597 20.6458 23.3336C17.4404 22.9853 14.3615 21.89 11.6563 20.1357C9.13942 18.5364 7.00557 16.4026 5.40626 13.8857C3.64582 11.1682 2.55026 8.07421 2.20834 4.85443C2.18231 4.56637 2.21655 4.27606 2.30887 4.00195C2.40119 3.72786 2.54956 3.47598 2.74456 3.26237C2.93955 3.04875 3.1769 2.87809 3.44146 2.76122C3.70603 2.64436 3.99203 2.58387 4.28126 2.5836H7.40626C7.91179 2.57862 8.40188 2.75764 8.78518 3.08727C9.16848 3.41691 9.41884 3.87468 9.48959 4.37526C9.62149 5.37533 9.86611 6.35726 10.2188 7.30235C10.3589 7.67518 10.3892 8.08038 10.3062 8.46993C10.2231 8.85947 10.0301 9.21704 9.75001 9.50026L8.42709 10.8232C9.90997 13.431 12.0693 15.5903 14.6771 17.0732L16 15.7503C16.2832 15.4702 16.6408 15.2771 17.0303 15.1941C17.4199 15.111 17.8251 15.1414 18.1979 15.2815C19.143 15.6341 20.1249 15.8788 21.125 16.0107C21.6311 16.082 22.0931 16.3369 22.4234 16.7268C22.7539 17.1167 22.9294 17.6144 22.9167 18.1253Z" stroke="#1473E6" stroke-width="1.04167" stroke-linecap="round" stroke-linejoin="round"/>
</svg>
