<svg width="48" height="48" viewBox="0 0 48 48" fill="none" xmlns="http://www.w3.org/2000/svg">
<path d="M39 1.5C37.0109 1.5 35.1032 2.29018 33.6967 3.6967C32.2902 5.1032 31.5 7.0109 31.5 9V39C31.5 40.9891 32.2902 42.8968 33.6967 44.3033C35.1032 45.7098 37.0109 46.5 39 46.5C40.9891 46.5 42.8968 45.7098 44.3033 44.3033C45.7098 42.8968 46.5 40.9891 46.5 39C46.5 37.0109 45.7098 35.1032 44.3033 33.6967C42.8968 32.2902 40.9891 31.5 39 31.5H9C7.0109 31.5 5.1032 32.2902 3.6967 33.6967C2.29018 35.1032 1.5 37.0109 1.5 39C1.5 40.9891 2.29018 42.8968 3.6967 44.3033C5.1032 45.7098 7.0109 46.5 9 46.5C10.9891 46.5 12.8968 45.7098 14.3033 44.3033C15.7098 42.8968 16.5 40.9891 16.5 39V9C16.5 7.0109 15.7098 5.1032 14.3033 3.6967C12.8968 2.29018 10.9891 1.5 9 1.5C7.0109 1.5 5.1032 2.29018 3.6967 3.6967C2.29018 5.1032 1.5 7.0109 1.5 9C1.5 10.9891 2.29018 12.8968 3.6967 14.3033C5.1032 15.7098 7.0109 16.5 9 16.5H39C40.9891 16.5 42.8968 15.7098 44.3033 14.3033C45.7098 12.8968 46.5 10.9891 46.5 9C46.5 7.0109 45.7098 5.1032 44.3033 3.6967C42.8968 2.29018 40.9891 1.5 39 1.5Z" stroke="#37A282" stroke-width="2" stroke-linecap="round" stroke-linejoin="round"/>
</svg>
